<?xml version="1.0" encoding="utf-8"?>
<!-- Generator: Adobe Illustrator 21.0.0, SVG Export Plug-In . SVG Version: 6.00 Build 0)  -->
<svg version="1.1" id="Layer_1" xmlns="http://www.w3.org/2000/svg" xmlns:xlink="http://www.w3.org/1999/xlink" x="0px" y="0px"
	 viewBox="0 0 1000 1000" style="enable-background:new 0 0 1000 1000;" xml:space="preserve">
<style type="text/css">
	.st0{fill:#FFFFFF;}
</style>
<g>
	<g>
		<polygon class="st0" points="1001.4,2.1 775.1,147.7 776,146.6 711.6,352.5 711.4,353.1 710.9,353.5 536.7,455.2 536.8,455.1 
			297.5,623.7 297.8,623.2 250.5,814.1 250.5,814.3 250.3,814.4 0,1000 249.7,813.6 249.5,813.9 296.2,622.8 296.2,622.5 
			296.5,622.3 535.2,452.9 535.3,452.9 535.3,452.8 709.1,350.5 708.4,351.5 772,145.4 772.3,144.7 772.9,144.3 998.6,-2.1 		"/>
	</g>
	<g>
		<polygon class="st0" points="504.9,477.8 362.9,626.8 363.1,625.5 494.6,909.7 494.1,909.3 912,1000 493.9,910.7 493.5,910.6 
			493.4,910.3 360.9,626.5 360.6,625.8 361.1,625.2 502.7,475.7 		"/>
	</g>
</g>
<g>
	<g>
		<polygon class="st0" points="1836.6,597.9 1548.3,799.4 1549,798.3 1510.8,955.2 1510.6,955.8 1510.1,956.2 1279.8,1106.8 
			1280.1,1106.6 1118.7,1286.3 1118.9,1286.1 1053.6,1461 1053.5,1461.1 1053.4,1461.2 835.2,1595.8 1053,1460.4 1052.8,1460.7 
			1117.5,1285.5 1117.5,1285.4 1117.6,1285.3 1278.3,1105 1278.4,1104.9 1278.5,1104.8 1508.3,953.4 1507.6,954.4 1545.3,797.4 
			1545.5,796.7 1546.1,796.2 1833.8,593.8 		"/>
	</g>
</g>
</svg>
