<?xml version="1.0" encoding="utf-8"?>
<!-- Generator: Adobe Illustrator 21.0.0, SVG Export Plug-In . SVG Version: 6.00 Build 0)  -->
<svg version="1.1" id="Layer_1" xmlns="http://www.w3.org/2000/svg" xmlns:xlink="http://www.w3.org/1999/xlink" x="0px" y="0px"
	 viewBox="0 0 1000 1000" style="enable-background:new 0 0 1000 1000;" xml:space="preserve">
<style type="text/css">
	.st0{fill:#FFFFFF;}
</style>
<g>
	<g>
		<polygon class="st0" points="1001.4,2 713.1,203.6 713.8,202.4 675.6,359.4 675.4,360 674.9,360.4 444.6,511 444.9,510.8 
			283.6,690.5 283.7,690.3 218.4,865.2 218.4,865.3 218.2,865.4 0,1000 217.8,864.6 217.6,864.8 282.3,689.7 282.3,689.6 
			282.4,689.5 443.1,509.2 443.2,509.1 443.4,509 673.1,357.6 672.4,358.6 710.2,201.6 710.3,200.9 710.9,200.4 998.6,-2 		"/>
	</g>
	<g>
		<polygon class="st0" points="375.1,588.4 270.2,882.1 270.2,882.1 270.1,882.1 212,978 269.9,881.9 269.8,881.9 373.2,587.7 		"/>
	</g>
</g>
</svg>
