<?xml version="1.0" encoding="utf-8"?>
<!-- Generator: Adobe Illustrator 21.0.0, SVG Export Plug-In . SVG Version: 6.00 Build 0)  -->
<svg version="1.1" id="Layer_1" xmlns="http://www.w3.org/2000/svg" xmlns:xlink="http://www.w3.org/1999/xlink" x="0px" y="0px"
	 viewBox="0 0 1000 1000" style="enable-background:new 0 0 1000 1000;" xml:space="preserve">
<style type="text/css">
	.st0{fill:#FFFFFF;}
</style>
<g>
	<g>
		<polygon class="st0" points="631.8,1 507.5,269.1 507.6,268.3 522.1,542.5 522.2,542.9 521.9,543.2 425.9,678.4 426,678.1 
			390.6,877.5 390.6,877.6 390.5,877.6 328.5,961.5 390.1,877.3 390.1,877.4 424.6,677.8 424.6,677.7 424.7,677.5 520.1,541.9 
			519.9,542.7 504,268.5 504,268 504.2,267.6 627.3,-1 		"/>
	</g>
	<g>
		<polygon class="st0" points="508,267.1 672.8,555.9 673.1,556.4 672.9,557 630.4,720.2 630.4,719.8 662.6,877.4 662.7,877.6 
			662.5,877.8 568.8,984.8 661.9,877.2 661.8,877.6 628.6,720.1 628.6,719.9 628.6,719.7 670.1,556.2 670.3,557.3 503.7,269.6 		"/>
	</g>
	<g>
		<polygon class="st0" points="522.5,542.7 515,710.7 515,710.8 514.9,711 451.4,853.2 451.5,852.9 463.8,1000 450.5,853 
			450.5,852.9 450.6,852.8 513.1,710.2 513,710.6 519.5,542.5 		"/>
	</g>
</g>
<g>
	<g>
		<polygon class="st0" points="1836.6,597.9 1548.3,799.4 1549,798.3 1510.8,955.2 1510.6,955.8 1510.1,956.2 1279.8,1106.8 
			1280.1,1106.6 1118.7,1286.3 1118.9,1286.1 1053.6,1461 1053.5,1461.1 1053.4,1461.2 835.2,1595.8 1053,1460.4 1052.8,1460.7 
			1117.5,1285.5 1117.5,1285.4 1117.6,1285.3 1278.3,1105 1278.4,1104.9 1278.5,1104.8 1508.3,953.4 1507.6,954.4 1545.3,797.4 
			1545.5,796.7 1546.1,796.2 1833.8,593.8 		"/>
	</g>
</g>
</svg>
